<svg width="121" height="121" viewBox="0 0 121 121" fill="none" xmlns="http://www.w3.org/2000/svg">
<rect width="121" height="121" fill="#1D1D1D"/>
<path fill-rule="evenodd" clip-rule="evenodd" d="M39.5872 50.535C37.9228 48.8411 35.7266 48 33.542 48C31.3574 48 29.1612 48.8411 27.4967 50.535C25.8322 52.2173 25 54.4369 25 56.6449C25 58.8528 25.8322 61.0724 27.4967 62.7547C29.1612 64.4369 31.3574 65.2897 33.542 65.2897C35.7266 65.2897 37.9228 64.4486 39.5872 62.7547C41.2517 61.0607 42.0955 58.8528 42.0955 56.6449C42.0955 54.4369 41.2633 52.2173 39.5872 50.535ZM37.8187 52.3224C37.3911 51.8902 36.8363 51.6799 36.2699 51.6799C35.7035 51.6799 35.1487 51.8902 34.721 52.3224C34.2933 52.7547 34.0852 53.3154 34.0852 53.8879C34.0852 54.4603 34.3049 55.021 34.721 55.4533C35.1487 55.8855 35.7035 56.0958 36.2699 56.0958C36.8363 56.0958 37.3911 55.8855 37.8187 55.4533C38.2464 55.021 38.4545 54.4603 38.4545 53.8879C38.4545 53.3154 38.2464 52.7547 37.8187 52.3224ZM57.8849 50.535C56.2204 48.8411 54.0358 48 51.8396 48C49.6434 48 47.4588 48.8411 45.7944 50.535C44.1183 52.2173 43.2861 54.4369 43.2861 56.6449C43.2861 58.8528 44.1183 61.0724 45.7944 62.7547C47.4588 64.4369 49.6434 65.2897 51.8396 65.2897C54.0358 65.2897 56.2089 64.4486 57.8849 62.7547C59.5609 61.0607 60.3932 58.8528 60.3932 56.6449C60.3932 54.4369 59.5609 52.2173 57.8849 50.535ZM56.1164 52.3224C55.6887 51.8902 55.1339 51.6799 54.5675 51.6799C54.0011 51.6799 53.4463 51.8902 53.0186 52.3224C52.591 52.7547 52.3829 53.3154 52.3829 53.8879C52.3829 54.4603 52.591 55.021 53.0186 55.4533C53.4463 55.8855 54.0011 56.0958 54.5675 56.0958C55.1339 56.0958 55.6887 55.8855 56.1164 55.4533C56.5441 55.021 56.7521 54.4603 56.7521 53.8879C56.7521 53.3154 56.5441 52.7547 56.1164 52.3224ZM76.1825 50.535C74.5181 48.8411 72.3219 48 70.1373 48C67.9526 48 65.768 48.8411 64.1036 50.535C62.4275 52.2173 61.5953 54.4369 61.5953 56.6449C61.5953 58.8528 62.4275 61.0724 64.1036 62.7547C65.768 64.4369 67.9526 65.2897 70.1373 65.2897C72.3219 65.2897 74.5181 64.4486 76.1825 62.7547C77.8586 61.0607 78.6908 58.8528 78.6908 56.6449C78.6908 54.4369 77.8586 52.2173 76.1825 50.535ZM74.414 52.3224C73.9864 51.8902 73.4315 51.6799 72.8652 51.6799C72.2988 51.6799 71.744 51.8902 71.3163 52.3224C70.8886 52.7547 70.6805 53.3154 70.6805 53.8879C70.6805 54.4603 70.9002 55.021 71.3163 55.4533C71.744 55.8855 72.2988 56.0958 72.8652 56.0958C73.4315 56.0958 73.9864 55.8855 74.414 55.4533C74.8417 55.021 75.0498 54.4603 75.0498 53.8879C75.0498 53.3154 74.8302 52.7547 74.414 52.3224ZM94.4917 50.535C92.8273 48.8411 90.6311 48 88.4465 48C86.2618 48 84.0772 48.8411 82.4012 50.535C80.7367 52.2173 79.8929 54.4369 79.8929 56.6449C79.8929 58.8528 80.7252 61.0724 82.4012 62.7547C84.0657 64.4369 86.2618 65.2897 88.4465 65.2897C90.6311 65.2897 92.8273 64.4486 94.4917 62.7547C96.1562 61.0607 97 58.8528 97 56.6449C97 54.4369 96.1678 52.2173 94.4917 50.535ZM92.7232 52.3224C92.2956 51.8902 91.7407 51.6799 91.1859 51.6799C90.6311 51.6799 90.0647 51.8902 89.637 52.3224C89.2093 52.7547 89.0013 53.3154 89.0013 53.8879C89.0013 54.4603 89.2209 55.021 89.637 55.4533C90.0647 55.8855 90.6195 56.0958 91.1859 56.0958C91.7523 56.0958 92.3071 55.8855 92.7232 55.4533C93.1509 55.021 93.359 54.4603 93.359 53.8879C93.359 53.3154 93.1509 52.7547 92.7232 52.3224ZM48.7418 66.8084C47.0658 65.1262 44.8812 64.2734 42.6966 64.2734C40.512 64.2734 38.3273 65.1145 36.6513 66.8084C34.9868 68.5023 34.143 70.7103 34.143 72.9182C34.143 75.1262 34.9753 77.3458 36.6513 79.028C38.3158 80.722 40.512 81.5631 42.6966 81.5631C44.8812 81.5631 47.0658 80.722 48.7418 79.028C50.4063 77.3458 51.2501 75.1262 51.2501 72.9182C51.2501 70.7103 50.4179 68.4907 48.7418 66.8084ZM46.9733 68.5958C46.5457 68.1635 45.9908 67.9533 45.4245 67.9533C44.8581 67.9533 44.3033 68.1635 43.8871 68.5958C43.4595 69.028 43.2514 69.5888 43.2514 70.1495C43.2514 70.7103 43.471 71.2827 43.8871 71.715C44.3148 72.1472 44.8696 72.3575 45.4245 72.3575C45.9793 72.3575 46.5457 72.1472 46.9733 71.715C47.401 71.2827 47.6207 70.722 47.6207 70.1495C47.6207 69.5771 47.401 69.0164 46.9733 68.5958ZM67.0395 66.8084C65.375 65.1262 63.1788 64.2734 60.9942 64.2734C58.8096 64.2734 56.625 65.1145 54.949 66.8084C53.2845 68.5023 52.4407 70.7103 52.4407 72.9182C52.4407 75.1262 53.2729 77.3458 54.949 79.028C56.6134 80.722 58.8096 81.5631 60.9942 81.5631C63.1788 81.5631 65.3635 80.722 67.0395 79.028C68.704 77.3458 69.5478 75.1262 69.5478 72.9182C69.5478 70.7103 68.7155 68.4907 67.0395 66.8084ZM65.271 68.5958C64.8433 68.1635 64.2885 67.9533 63.7221 67.9533C63.1557 67.9533 62.6009 68.1635 62.1732 68.5958C61.7456 69.028 61.5375 69.5888 61.5375 70.1495C61.5375 70.7103 61.7571 71.2827 62.1732 71.715C62.6009 72.1472 63.1557 72.3575 63.7221 72.3575C64.2885 72.3575 64.8433 72.1472 65.271 71.715C65.6987 71.2827 65.9067 70.722 65.9067 70.1495C65.9067 69.5771 65.6987 69.0164 65.271 68.5958ZM85.3371 66.8084C83.6727 65.1262 81.4765 64.2734 79.2919 64.2734C77.1072 64.2734 74.9111 65.1145 73.2466 66.8084C71.5821 68.5023 70.7383 70.7103 70.7383 72.9182C70.7383 75.1262 71.5706 77.3458 73.2466 79.028C74.9111 80.722 77.1072 81.5631 79.2919 81.5631C81.4765 81.5631 83.6611 80.722 85.3371 79.028C87.0016 77.3458 87.8454 75.1262 87.8454 72.9182C87.8454 70.7103 87.0132 68.4907 85.3371 66.8084ZM83.5686 68.5958C83.141 68.1635 82.5861 67.9533 82.0198 67.9533C81.4534 67.9533 80.8986 68.1635 80.4709 68.5958C80.0432 69.028 79.8351 69.5888 79.8351 70.1495C79.8351 70.7103 80.0432 71.2827 80.4709 71.715C80.8986 72.1472 81.4534 72.3575 82.0198 72.3575C82.5861 72.3575 83.141 72.1472 83.5686 71.715C83.9963 71.2827 84.2044 70.722 84.2044 70.1495C84.2044 69.5771 83.9963 69.0164 83.5686 68.5958ZM57.8849 83.2453C56.2204 81.5514 54.0358 80.7103 51.8396 80.7103C49.655 80.7103 47.4588 81.5514 45.7944 83.2453C44.1183 84.9276 43.2861 87.1472 43.2861 89.3551C43.2861 91.5631 44.1183 93.7827 45.7944 95.4649C47.4588 97.1589 49.6434 98 51.8396 98C54.0358 98 56.2089 97.1589 57.8849 95.4649C59.5609 93.771 60.3932 91.5631 60.3932 89.3551C60.3932 87.1472 59.5609 84.9276 57.8849 83.2453ZM56.1164 85.0327C55.6887 84.6005 55.1339 84.3902 54.5675 84.3902C54.0011 84.3902 53.4463 84.6005 53.0186 85.0327C52.591 85.4649 52.3829 86.0257 52.3829 86.5981C52.3829 87.1706 52.591 87.7313 53.0186 88.1635C53.4463 88.5958 54.0011 88.8061 54.5675 88.8061C55.1339 88.8061 55.6887 88.5841 56.1164 88.1635C56.5441 87.7313 56.7521 87.1706 56.7521 86.5981C56.7521 86.0257 56.5441 85.4649 56.1164 85.0327ZM76.1825 83.2453C74.5181 81.5514 72.3219 80.7103 70.1373 80.7103C67.9526 80.7103 65.768 81.5514 64.1036 83.2453C62.4275 84.9276 61.5953 87.1472 61.5953 89.3551C61.5953 91.5631 62.4275 93.7827 64.1036 95.4649C65.768 97.1589 67.9526 98 70.1373 98C72.3219 98 74.5181 97.1589 76.1825 95.4649C77.8586 93.771 78.6908 91.5631 78.6908 89.3551C78.6908 87.1472 77.8586 84.9276 76.1825 83.2453ZM74.414 85.0327C73.9864 84.6005 73.4315 84.3902 72.8652 84.3902C72.2988 84.3902 71.744 84.6005 71.3163 85.0327C70.8886 85.4649 70.6805 86.0257 70.6805 86.5981C70.6805 87.1706 70.9002 87.7313 71.3163 88.1635C71.744 88.5958 72.2988 88.8061 72.8652 88.8061C73.4315 88.8061 73.9864 88.5841 74.414 88.1635C74.8417 87.7313 75.0498 87.1706 75.0498 86.5981C75.0498 86.0257 74.8302 85.4649 74.414 85.0327Z" fill="white"/>
<path d="M70.9553 32.0343C71.8805 31.8026 74.2409 34.9883 73.98 35.4285C70.4096 36.3552 65.2142 41.4638 63.4706 45.2981C61.893 48.7502 62.2014 50.2909 61.3236 49.9549C59.9951 49.4452 60.1375 47.2674 60.6119 45.0896C52.1665 43.6532 42.0129 36.9692 42.0129 25.8253C42.0129 23.6822 41.6452 23.8791 44.836 24.1919C55.3217 25.1881 59.8528 28.2811 61.0864 37.2588C61.1101 37.4325 59.1885 33.9225 54.7523 30.1577C51.0159 26.9952 45.8679 25.86 45.346 25.7789C45.0139 25.721 49.7467 27.1574 53.7322 31.1076C58.5836 35.9034 61.2406 42.7033 61.2406 42.7033L61.4185 42.1125C62.8775 37.2588 66.4004 33.2507 70.9553 32.0459" fill="white"/>
</svg>
